<?xml version="1.0" standalone="no"?><!DOCTYPE svg PUBLIC "-//W3C//DTD SVG 1.1//EN" "http://www.w3.org/Graphics/SVG/1.1/DTD/svg11.dtd"><svg t="1742731949497" class="icon" viewBox="0 0 1024 1024" version="1.1" xmlns="http://www.w3.org/2000/svg" p-id="3041" xmlns:xlink="http://www.w3.org/1999/xlink" width="128" height="128"><path d="M938.666667 682.666667c-46.933333 0-85.333333-38.4-85.333334-85.333334V384c0-187.733333-153.6-341.333333-341.333333-341.333333S170.666667 196.266667 170.666667 384v213.333333c0 46.933333-38.4 85.333333-85.333334 85.333334-25.6 0-42.666667 17.066667-42.666666 42.666666s17.066667 42.666667 42.666666 42.666667h853.333334c25.6 0 42.666667-17.066667 42.666666-42.666667s-17.066667-42.666667-42.666666-42.666666zM234.666667 682.666667c12.8-25.6 21.333333-55.466667 21.333333-85.333334V384c0-140.8 115.2-256 256-256s256 115.2 256 256v213.333333c0 29.866667 8.533333 59.733333 21.333333 85.333334h-554.666666zM605.866667 857.6c-21.333333-12.8-46.933333-4.266667-59.733334 17.066667-4.266667 12.8-17.066667 21.333333-34.133333 21.333333s-29.866667-8.533333-38.4-21.333333c-12.8-21.333333-38.4-25.6-59.733333-17.066667-21.333333 12.8-25.6 38.4-17.066667 59.733333 34.133333 59.733333 115.2 81.066667 174.933333 46.933334 17.066667-12.8 34.133333-25.6 46.933334-46.933334 17.066667-21.333333 8.533333-46.933333-12.8-59.733333z" p-id="3042"></path></svg>